<?xml version="1.0" encoding="UTF-8"?>
<svg width="1327px" height="1164px" viewBox="0 0 1327 1164" version="1.1" xmlns="http://www.w3.org/2000/svg" xmlns:xlink="http://www.w3.org/1999/xlink">
    <!-- Generator: Sketch 52.6 (67491) - http://www.bohemiancoding.com/sketch -->
    <title>Artboard</title>
    <desc>Created with Sketch.</desc>
    <g id="Artboard" stroke="none" stroke-width="1" fill="none" fill-rule="evenodd">
        <g id="wfh_8" transform="translate(19.000000, 10.000000)">
            <path d="M697.886994,36.0000095 L712.224924,36.0000095 C825.050979,36.0275167 916.500003,127.633908 916.5,240.626605 L916.5,631 L493.5,631 L493.5,240.626605 C493.499997,186.345467 515.03555,134.288453 553.367335,95.911732 C591.69912,57.5350109 643.685911,35.9834916 697.886994,36.0000095 Z" id="Path" fill="#FFB7D5"></path>
            <path d="M783.491821,396.000744 L783.491821,637.999256 L594.508179,637.999256 L594.508179,396.000744 L783.491821,396.000744 Z M788.5,391 L589.5,391 L589.5,643 L788.5,643 L788.5,391 Z" id="Shape" fill="#CA7358" fill-rule="nonzero"></path>
            <rect id="Rectangle" fill="#CA7358" x="589.5" y="391" width="199" height="52"></rect>
            <path d="M589.522762,264.986817 L589.522762,638.013183 L476.477238,638.013183 L476.477238,264.986817 L589.522762,264.986817 Z M594.5,260 L471.5,260 L471.5,643 L594.5,643 L594.5,260 Z" id="Shape" fill="#CA7358" fill-rule="nonzero"></path>
            <path d="M938.559412,190.972602 L938.559412,637.027398 L790.440588,637.027398 L790.440588,190.972602 L938.559412,190.972602 Z M943.5,186 L785.5,186 L785.5,642 L943.5,642 L943.5,186 Z" id="Shape" fill="#CA7358" fill-rule="nonzero"></path>
            <path d="M849.311026,248.000004 L850.701061,248.000004 C861.635713,248.000004 870.5,257.080979 870.5,268.282929 L870.5,314 L829.5,314 L829.5,268.282929 C829.499999,262.901417 831.587612,257.740498 835.303248,253.936355 C839.018884,250.132213 844.057927,247.996718 849.311026,248.000004 Z" id="Path" fill="#CA7358"></path>
            <path d="M823.5,282.5 L875.5,282.5" id="Path" stroke="#FFB7D5" stroke-width="4" stroke-linecap="round" stroke-linejoin="round"></path>
            <path d="M849.311026,366.000004 L850.701061,366.000004 C861.635713,366.000004 870.5,375.080979 870.5,386.282929 L870.5,432 L829.5,432 L829.5,386.282929 C829.499999,380.901417 831.587612,375.740498 835.303248,371.936355 C839.018884,368.132213 844.057927,365.996718 849.311026,366.000004 Z" id="Path" fill="#F5EBDD"></path>
            <path d="M823.5,401.5 L875.5,401.5" id="Path" stroke="#FFB7D5" stroke-width="4" stroke-linecap="round" stroke-linejoin="round"></path>
            <path d="M849.311026,485 L850.701061,485 C861.635713,485 870.5,494.080976 870.5,505.282927 L870.5,551 L829.5,551 L829.5,505.282927 C829.5,494.080976 838.364287,485 849.298939,485 L849.311026,485 Z" id="Path" fill="#F5EBDD"></path>
            <path d="M823.5,520.5 L875.5,520.5" id="Path" stroke="#FFB7D5" stroke-width="4" stroke-linecap="round" stroke-linejoin="round"></path>
            <path d="M849.311026,603.000004 L850.701061,603.000004 C861.635713,603.000004 870.5,612.185198 870.5,623.515708 L870.5,666 L829.5,666 L829.5,623.515708 C829.499999,618.072434 831.587612,612.852286 835.303248,609.004485 C839.018884,605.156683 844.057927,602.996681 849.311026,603.000004 Z" id="Path" fill="#30242A"></path>
            <rect id="Rectangle" fill="#CA7358" x="785.5" y="185" width="158" height="21"></rect>
            <rect id="Rectangle" fill="#CA7358" x="471.5" y="250" width="123" height="21"></rect>
            <rect id="Rectangle" fill="#F5EBDD" x="626.5" y="491" width="41" height="54"></rect>
            <path d="M620.5,512.5 L672.5,512.5" id="Path" stroke="#FFB7D5" stroke-width="4" stroke-linecap="round" stroke-linejoin="round"></path>
            <path d="M647,548 L647,515" id="Path" stroke="#FFB7D5" stroke-width="4" stroke-linecap="round" stroke-linejoin="round"></path>
            <rect id="Rectangle" fill="#CA7358" x="626.5" y="588" width="41" height="54"></rect>
            <path d="M620.5,612.5 L672.5,612.5" id="Path" stroke="#FFB7D5" stroke-width="4" stroke-linecap="round" stroke-linejoin="round"></path>
            <path d="M647,645 L647,612" id="Path" stroke="#FFB7D5" stroke-width="4" stroke-linecap="round" stroke-linejoin="round"></path>
            <rect id="Rectangle" fill="#30242A" x="706.5" y="491" width="41" height="54"></rect>
            <path d="M699.5,512.5 L751.5,512.5" id="Path" stroke="#FFB7D5" stroke-width="4" stroke-linecap="round" stroke-linejoin="round"></path>
            <path d="M727,548 L727,515" id="Path" stroke="#FFB7D5" stroke-width="4" stroke-linecap="round" stroke-linejoin="round"></path>
            <rect id="Rectangle" fill="#F5EBDD" x="706.5" y="588" width="41" height="54"></rect>
            <path d="M699.5,612.5 L751.5,612.5" id="Path" stroke="#FFB7D5" stroke-width="4" stroke-linecap="round" stroke-linejoin="round"></path>
            <path d="M727,645 L727,612" id="Path" stroke="#FFB7D5" stroke-width="4" stroke-linecap="round" stroke-linejoin="round"></path>
            <circle id="Oval" fill="#F5EBDD" cx="618" cy="151.5" r="31.5"></circle>
            <rect id="Rectangle" fill="#F5EBDD" x="440.5" y="633" width="532" height="36"></rect>
            <path d="M714.378788,0 L697.571301,0 C564.983066,0 457.5,107.53034 457.5,240.176892 L457.5,669 L954.5,669 L954.5,240.176892 C954.462567,107.53034 846.967023,0 714.378788,0 Z M687.826203,632.711319 L493.735294,632.711319 L493.735294,330.268193 L687.826203,330.268193 L687.826203,632.711319 Z M687.826203,293.979512 L493.735294,293.979512 L493.735294,241.41273 C493.73914,132.382775 578.999512,42.407367 687.826203,36.5882781 L687.826203,293.979512 Z M918.177362,632.711319 L724.09893,632.711319 L724.09893,330.268193 L918.177362,330.268193 L918.177362,632.711319 Z M918.177362,293.979512 L724.09893,293.979512 L724.09893,36.5882781 C832.923543,42.407611 918.180158,132.384839 918.177362,241.41273 L918.177362,293.979512 Z" id="Shape" fill="#F5EBDD" fill-rule="nonzero"></path>
            <circle id="Oval" fill="#FFB7D5" cx="49" cy="1096.5" r="48.5"></circle>
            <path d="M1126.4621,703.695591 C1126.46996,705.013002 1126.19451,706.317404 1125.65351,707.524742 C1121.86323,715.934099 1105.66614,717.17765 1089.55749,710.295028 C1076.06412,704.545145 1066.89166,694.916862 1066.5,687 L1066.5,792 L1126.5,792 L1126.5,703.695591 L1126.4621,703.695591 Z" id="Path" fill="#FFBE21"></path>
            <path d="M1103.42173,678.408936 C1087.30751,671.58653 1071.13009,672.819201 1067.31323,681.154985 C1066.69911,682.523067 1066.42637,684.011327 1066.51699,685.499844 C1066.90879,693.347442 1076.08442,702.891487 1089.58246,708.591064 C1105.69668,715.41347 1121.87411,714.180799 1125.69097,705.845015 C1126.23216,704.64824 1126.5077,703.35525 1126.49984,702.049366 C1126.53775,694.104131 1117.24837,684.242764 1103.42173,678.408936 Z" id="Path" fill="#A15842"></path>
            <path d="M1171.48736,738 C1171.09562,745.969245 1161.92123,755.661235 1148.42502,761.461556 C1132.30034,768.377324 1116.13775,767.137939 1112.30877,758.660546 C1111.77358,757.447736 1111.4983,756.139975 1111.50001,754.818453 L1111.5,792 L1171.5,792 L1171.5,738 L1171.48736,738 Z" id="Path" fill="#FFBE21"></path>
            <path d="M1170.68694,733.153863 C1166.89615,724.819386 1150.69684,723.586908 1134.57334,730.408244 C1120.76222,736.253361 1111.47478,746.100979 1111.50005,754.05717 C1111.49834,755.358316 1111.77361,756.645912 1112.30875,757.840022 C1116.09955,766.186702 1132.29886,767.406977 1148.42236,760.597843 C1161.91758,754.886957 1171.09129,745.344408 1171.48301,737.498041 C1171.57361,736.009758 1171.30094,734.521731 1170.68694,733.153863 Z" id="Path" fill="#A15842"></path>
            <path d="M1114,792 L1114,756" id="Path" stroke="#A15842" stroke-width="4" stroke-linecap="round"></path>
            <path d="M1096,670 L1096,691" id="Path" stroke="#30242A" stroke-width="4" stroke-linecap="round" stroke-linejoin="round"></path>
            <path d="M1143,723 L1143,745" id="Path" stroke="#30242A" stroke-width="4" stroke-linecap="round" stroke-linejoin="round"></path>
            <path d="M843.918245,1145 C840.89694,1145.00229 838.058257,1143.52315 836.287002,1141.02361 C834.515748,1138.52408 834.02731,1135.3081 834.973934,1132.37809 L864.460673,1040.61207 C865.737652,1036.66633 869.347892,1034.00112 873.417269,1034 L894.082559,1034 C897.423257,1033.99773 900.514756,1035.80417 902.205574,1038.74647 C903.896393,1041.68877 903.933086,1045.3259 902.301987,1048.30316 L852.100815,1140.06917 C850.447439,1143.10322 847.31835,1144.98881 843.918245,1145 Z" id="Path" fill="#30242A"></path>
            <path d="M1243.08058,1145 C1246.10226,1145.00229 1248.9413,1143.52315 1250.71277,1141.02361 C1252.48425,1138.52408 1252.97275,1135.3081 1252.02601,1132.37809 L1222.53558,1040.61207 C1221.25986,1036.67071 1217.65551,1034.00653 1213.59015,1034 L1192.90999,1034 C1189.57198,1034.0053 1186.48573,1035.81309 1184.79628,1038.75266 C1183.10682,1041.69222 1183.06622,1045.32498 1184.68953,1048.30315 L1234.89698,1140.06917 C1236.55441,1143.09939 1239.68147,1144.98352 1243.08058,1145 Z" id="Path" fill="#30242A"></path>
            <rect id="Rectangle" fill="#A15842" x="798.5" y="792" width="490" height="281"></rect>
            <rect id="Rectangle" fill="#FFB7D5" x="834.5" y="827" width="419" height="209"></rect>
            <path d="M1044,825 L1044,1041" id="Path" stroke="#A15842" stroke-width="4"></path>
            <circle id="Oval" fill="#30242A" cx="1092" cy="932.5" r="12.5"></circle>
            <circle id="Oval" fill="#30242A" cx="994" cy="932.5" r="12.5"></circle>
            <polygon id="Rectangle" fill="#A15842" transform="translate(285.000000, 1038.000000) rotate(-90.000000) translate(-285.000000, -1038.000000) " points="274.5 949 295.5 949 295.5 1127 274.5 1127"></polygon>
            <path d="M401.377187,1134.39077 L357.636522,870.716545 L384.384143,870.716545 C390.353303,870.716545 395.192264,865.855131 395.192264,859.858273 C395.192264,853.861414 390.353303,849 384.384143,849 L183.826566,849 C177.857405,849 173.018445,853.861414 173.018445,859.858273 C173.018445,865.855131 177.857405,870.716545 183.826566,870.716545 L210.363478,870.716545 L166.622813,1134.39077 C166.185758,1137.03294 166.927548,1139.73451 168.651151,1141.77789 C170.374754,1143.82128 172.905704,1144.99964 175.571739,1145 C179.838266,1145.00364 183.529237,1142.01642 184.433903,1137.82756 L242.391213,870.716545 L325.608787,870.716545 L383.553702,1137.82756 C384.467828,1142.01572 388.160399,1145.00006 392.428261,1145 C395.094296,1144.99964 397.625246,1143.82128 399.348849,1141.77789 C401.072452,1139.73451 401.814242,1137.03294 401.377187,1134.39077 Z" id="Path" fill="#FFBE21"></path>
            <path d="M384.700335,871.664596 C390.664825,871.664596 395.5,866.814811 395.5,860.832298 C395.5,854.849785 390.664825,850 384.700335,850 L184.299665,850 C178.335175,850 173.5,854.849785 173.5,860.832298 C173.5,866.814811 178.335175,871.664596 184.299665,871.664596 L210.815816,871.664596 L210.815816,872 L242.793724,872 L242.868033,871.664596 L326.020502,871.664596 L326.094812,872 L358.07272,872 L358.07272,871.664596 L384.700335,871.664596 Z" id="Path" fill="#A15842"></path>
            <path d="M398.515539,1028 L526.02794,1028 C527.612561,1000.8256 533.27015,964.779442 537.962111,916.084205 C542.134119,872.905856 545.724274,836.660894 545.489056,806.740473 C545.092901,756.86482 417.976655,817.227531 417.976655,817.227531 C417.976655,828.124628 420.167887,838.586835 420.229786,848.725981 C420.378345,875.06788 407.082391,897.483345 397.58705,929.255155 C383.189291,977.428524 395.18536,1028 395.18536,1028 L398.515539,1028 Z" id="Path" fill="#4856DF"></path>
            <path d="M531.729365,1131.39892 L420.245124,1131.39892 C417.047988,1132.42312 415.068633,1135.63579 415.580245,1138.97043 C416.091856,1142.30507 418.942059,1144.76853 422.297512,1144.77622 L586.352563,1145 C587.799126,1128.96216 578.736472,1116.89027 553.168167,1099 C538.578901,1111.71838 531.729365,1131.39892 531.729365,1131.39892 Z" id="Path" fill="#3EC1F3"></path>
            <path d="M548.694239,1094.92405 C543.346508,1091.502 538.727382,1087.07663 535.097521,1081.89765 C526.357665,1069.20494 524.50981,1052.11243 525.945643,1028 L414.5,1028 C414.715325,1046.0278 416.028686,1064.02635 418.432935,1081.89765 C421.279631,1102.12935 425.125167,1116.0456 428.209088,1130.67867 L422.353384,1130.67867 C421.645706,1130.6778 420.942222,1130.78621 420.268305,1131 L532.850129,1131 C532.850129,1131 539.767101,1111.43569 554.5,1098.86657 C552.652145,1097.57299 550.716891,1096.25882 548.694239,1094.92405 Z" id="Path" fill="#FFE0D6"></path>
            <path d="M527.5,1006 C520.702696,992.345212 516.070154,977.698699 513.771344,962.594691 C505.731153,906.216251 510.496167,877.312515 487.828493,852 L421.5,852" id="Path" stroke="#30242A" stroke-width="4" stroke-linecap="round" stroke-linejoin="round"></path>
            <path d="M569.409918,1033.24204 L569.534372,1033.5409 L668.5,987.167455 C660.796312,964.10526 652.744154,933.422079 639.51472,893.262478 C627.119126,855.680563 618.917623,827.599973 611.151708,805.870204 C588.641957,822.093405 557.483808,818.471454 539.290758,797.516792 C521.097709,776.562131 521.869949,745.185745 541.071797,725.152519 C488.241177,701.268452 300.602246,685.690263 300.602246,685.690263 L194.455636,670 C188.855217,679.264727 184.088638,693.94633 181.5,711.093545 L218.58722,711.093545 L218.58722,750.779948 C218.546081,767.487455 205.005494,781.013616 188.307621,781.027288 L186.191907,781.027288 C185.694092,781.027288 185.196277,781.027288 184.710907,781.027288 C194.841443,818.385057 220.90206,849.852751 274.093596,849.852751 L488.776328,849.852751 C511.688265,875.19377 506.871905,904.158494 514.998735,960.680798 C521.644566,1006.91726 553.143812,1041 553.143812,1041 L569.409918,1033.24204 Z" id="Path" fill="#4856DF"></path>
            <path d="M720.056823,1085.76594 L620.984862,1130.29188 C617.506501,1132.70066 616.473289,1137.35012 618.608849,1140.98396 C620.744408,1144.61779 625.335114,1146.0217 629.165805,1144.21244 L779.5,1074.7956 C773.60822,1058.68097 758.459717,1052.48304 722.57115,1046.2851 L721.032532,1046 C718.05872,1059.06119 717.727093,1072.57697 720.056823,1085.76594 Z" id="Path" fill="#3EC1F3"></path>
            <path d="M720.5,1044.57306 C710.261451,1042.59105 702.229273,1039.14136 695.597767,1033.92292 C683.375965,1024.28887 675.889181,1008.60844 668.067723,985 L569.5,1031.71511 C577.854457,1051.14629 589.580447,1071.58102 600.748646,1089.41907 C610.503776,1104.94896 619.812674,1118.4843 626.07232,1127.55385 L622.514858,1129.29752 C622.111046,1129.49712 621.725312,1129.73218 621.362092,1130 L719.533164,1084.94074 C717.208032,1071.55303 717.536684,1057.83104 720.5,1044.57306 Z" id="Path" fill="#FFE0D6"></path>
            <path d="M578.798121,813.99999 C590.182867,814.00695 601.278596,810.488701 610.5,803.947915 C594.875683,760.9275 581.328732,743.006439 540.360538,724.333014 L539.605132,724 C524.550039,739.378058 520.319921,762.07556 528.85661,781.673233 C537.3933,801.270906 557.047956,813.983506 578.798121,813.975322 L578.798121,813.99999 Z" id="Path" fill="#3EC1F3"></path>
            <path d="M187.11376,780 C203.338621,780.000001 216.493337,766.237328 216.5,749.255648 L216.5,709 L180.536553,709 C177.362597,730.839352 177.543621,756.531222 183.62603,779.962106 C184.096693,779.962106 184.579423,779.962106 185.062154,779.962106 L187.11376,780 Z" id="Path" fill="#3EC1F3"></path>
            <path d="M486.5,852.5 L522.5,852.5" id="Path" stroke="#30242A" stroke-width="4" stroke-linecap="round" stroke-linejoin="round"></path>
            <path d="M642.5,468 C642.5,468 577.408374,393.147673 500.5,366" id="Path" stroke="#30242A" stroke-width="4" stroke-linecap="round" stroke-linejoin="round"></path>
            <path d="M437.191543,395.945683 C434.804611,390.18402 442.769427,381.146118 456.035745,373.514111 C438.070939,369.04537 425.307134,360.722968 426.588539,353.731146 C427.869945,346.739324 442.744301,343.450531 461.136242,345.609586 C451.462885,333.810102 447.204096,322.537829 451.475448,317.993772 C456.915141,312.181899 474.17643,319.512642 490.018122,334.312208 C503.837203,347.24143 512.003024,361.626758 510.269357,368.944949 C509.302021,376.401219 496.575904,386.970544 479.088485,394.200866 C458.97544,402.535821 440.244304,403.314085 437.191543,395.945683 Z" id="Path" fill="#4756DF"></path>
            <circle id="Oval" fill="#30242A" cx="509.5" cy="368" r="23"></circle>
            <ellipse id="Oval" fill="#30242A" transform="translate(540.803574, 350.511901) rotate(-20.370000) translate(-540.803574, -350.511901) " cx="540.803574" cy="350.511901" rx="12.0587739" ry="50.7339571"></ellipse>
            <path d="M557.5,403 C557.5,403 565.3125,429.39945 561.40625,457" id="Path" stroke="#30242A" stroke-width="4" stroke-linecap="round" stroke-linejoin="round"></path>
            <path d="M234.056535,659.6375 L350.223201,662 C350.223201,662 353.131424,657.75 357.5,651.3125 L221.5,648 L234.056535,659.6375 Z" id="Path"></path>
            <path d="M381.500457,297 C360.888108,320.287428 338.979699,325.430434 338.979699,325.430434 C324.810267,309.913824 299.10091,309.913824 295.175342,331.899859 C290.900834,356.26344 320.909622,362.970619 320.909622,362.970619 C320.909622,362.970619 328.47413,394.404268 316.871895,409.933391 C306.628031,423.698126 293.468031,425.963051 266.5,428.991292 C301.643183,488.61762 337.534093,483.912584 349.485267,483.912584 C378.148147,483.912584 386.223601,450.514332 388.479245,433.2959 C381.952805,431.010771 375.29406,429.126115 368.539851,427.652359 L364.676593,404.377444 C364.676593,404.377444 382.709283,410.834356 398.174776,401.787171 C413.640269,392.739986 417.503526,375.90947 412.344208,350.044282 C409.290988,334.715373 409.403147,315.757579 406.786102,298.814442 C396.579624,300.553804 381.500457,297 381.500457,297 Z" id="Path" fill="#FFE0D6"></path>
            <path d="M595.405049,425.634156 C589.959455,403.715539 547.325045,391.826841 547.325045,391.826841 C547.325045,391.826841 549.88038,342.625346 538.902361,341.053493 C530.492082,339.805991 522.069398,360.402256 514.862359,400.297382 C506.799407,444.883118 511.252637,527.230752 511.252637,527.230752 C511.252637,527.230752 502.333772,519.084561 489.681139,507.744764 C487.104643,512.983866 481.84656,516.348931 476.036143,516.477281 C479.706035,521.154873 480.425466,527.519065 477.893276,532.905752 C475.361086,538.292439 470.014083,541.772405 464.09057,541.888905 C467.760461,546.566497 468.479892,552.930689 465.947702,558.317376 C463.415512,563.704063 458.068509,567.184029 452.144996,567.300529 C456.003759,572.221155 456.581766,578.978787 453.615267,584.489857 C450.648767,590.000927 444.70651,593.208833 438.5,592.649778 C464.834842,609.890261 500.63435,630 524.488283,630 C649.501255,629.9501 599.01477,440.142609 595.405049,425.634156 Z" id="Path" fill="#FFE0D6"></path>
            <path d="M454.658283,583.843971 C457.198357,578.462167 456.479642,572.106184 452.802039,567.42819 C458.751088,567.311787 464.121142,563.83475 466.664248,558.452596 C469.207355,553.070442 468.484822,546.711605 464.79911,542.03795 C470.748159,541.921547 476.118213,538.44451 478.661319,533.062356 C481.204426,527.680202 480.481893,521.321365 476.796181,516.64771 C482.631646,516.519468 487.912397,513.157235 490.5,507.922542 C468.598805,488.403094 435.5726,459.460464 417.994337,446.459963 C409.485511,440.165378 398.647036,435.503645 389.340897,432.287797 C387.148286,449.488843 379.125322,482.706805 350.471882,482.706805 C338.574475,482.706805 302.645552,487.393467 267.513942,428 L256.226978,429.246453 C217.357963,433.571643 199.667578,454.499583 189.252675,479.503422 C182.81188,494.971899 177.654261,523.316232 177.654261,523.316232 C173.658349,549.302705 171.601245,575.550722 171.5,601.842747 L222.042178,648.647042 L357.734906,652 C368.598297,635.970619 388.531126,606.36737 395.108959,595.012186 C403.555495,580.515942 404.763923,568.437816 404.763923,568.437816 C404.763923,568.437816 419.265055,579.780535 439.135593,592.731178 C445.657186,593.303318 451.847133,589.759387 454.658283,583.843971 Z" id="Path" fill="#FFBE21"></path>
            <path d="M395.399528,268.130693 C380.0029,248.831845 337.63734,235.957645 304.261423,260.411154 C270.885507,284.864662 273.455751,324.7697 274.734664,340.22123 C274.734664,340.22123 238.800921,328.62947 213.123319,355.660309 C198.030114,371.355729 191.76665,393.5813 196.435361,414.876646 C196.435361,414.876646 149.152813,413.544403 139.952086,457.359014 C134.724682,482.260754 144.484158,498.832862 155.311464,509.092378 C161.661693,515.067512 169.0803,519.786099 177.177159,523 C177.177159,523 182.317646,494.686722 188.737047,479.235192 C199.117354,454.258747 216.748976,433.353737 255.488879,429.033285 L266.738351,427.788198 C293.60795,424.775087 306.719917,422.484127 316.926391,408.825523 C328.473863,393.373993 320.899715,362.097408 320.899715,362.097408 C320.899715,362.097408 290.963207,355.423742 295.222113,331.2068 C299.083686,309.330622 324.748872,309.330622 338.866586,324.7697 C338.866586,324.7697 360.695032,319.627491 381.232147,296.456422 C381.232147,296.456422 396.256276,299.992469 406.5,298.261798 C404.749254,286.657588 401.669929,276.012094 395.399528,268.130693 Z" id="Path" fill="#7D5039"></path>
            <path d="M597.5,444 C593.872,442.30416 591.705106,438.033155 592.324219,429.867998 C592.324219,429.867998 584.820574,439.414951 576.834021,435.169069 C568.847469,430.923188 572.04209,421.778213 572.04209,421.778213 C572.04209,421.778213 564.835619,426.652183 558.842609,420.522035 C553.4068,415.007414 557.604384,405.912685 557.604384,405.912685 C557.604384,405.912685 549.630213,409.216433 546.80706,403.4757 C543.253354,396.290362 547.57476,388.765857 552.255251,383" id="Path" stroke="#30242A" stroke-width="8" stroke-linecap="round" stroke-linejoin="round"></path>
            <path d="M193.5,417 C194.813287,423.365781 197.180872,429.453856 200.5,435" id="Path" stroke="#000000" stroke-width="4" stroke-linecap="round"></path>
            <path d="M507.5,530 L510.5,567" id="Path" stroke="#30242A" stroke-width="4" stroke-linecap="round" stroke-linejoin="round"></path>
            <path d="M400.5,528 C408.112387,541.739078 408.01618,558.225972 407.030057,568" id="Path" stroke="#30242A" stroke-width="4" stroke-linecap="round" stroke-linejoin="round"></path>
            <path d="M327.5,568.015 L289.5,568.985" id="Path" stroke="#30242A" stroke-width="4" stroke-linecap="round" stroke-linejoin="round"></path>
            <path d="M363.5,406 C358.022862,403.971219 352.679897,401.633672 347.5,399" id="Path" stroke="#30242A" stroke-width="4" stroke-linecap="round" stroke-linejoin="round"></path>
            <path d="M374.5,442 L372.5,428" id="Path" stroke="#30242A" stroke-width="4" stroke-linecap="round" stroke-linejoin="round"></path>
            <path d="M272.5,340 L274.5,363" id="Path" stroke="#000000" stroke-width="4" stroke-linecap="round"></path>
            <path d="M399.5,367.829588 C396.790023,369.694006 387.806265,370.311102 383.5,362" id="Path" stroke="#30242A" stroke-width="4" stroke-linecap="round" stroke-linejoin="round"></path>
            <path d="M327.5,342 L314.5,337" id="Path" stroke="#30242A" stroke-width="4" stroke-linecap="round" stroke-linejoin="round"></path>
            <path d="M382.5,337 C380.557103,339.294815 371.39415,343.743058 364.5,338.664013" id="Path" stroke="#30242A" stroke-width="4" stroke-linecap="round" stroke-linejoin="round"></path>
            <path d="M412.5,332.729967 C409.741708,333.412127 406.863505,332.789727 404.5,331" id="Path" stroke="#30242A" stroke-width="4" stroke-linecap="round" stroke-linejoin="round"></path>
            <path d="M394.708008,338 C395.711873,341.150628 396.679563,344.627615 396.471555,345.958159 C396.162986,347.576366 395.467901,349.001343 394.5,350" id="Path" stroke="#30242A" stroke-width="4" stroke-linecap="round" stroke-linejoin="round"></path>
            <path d="M321.347385,356.880136 L304.766514,372.104378 C302.941167,373.779743 302.140392,376.257444 302.651578,378.648262 C303.162765,381.039081 304.912594,383.0001 307.273071,383.827533 L326.874342,390.597929 C329.243398,391.413345 331.877629,390.970983 333.829031,389.430041 C335.780432,387.889099 336.768199,385.471316 336.436855,383.046802 L333.416455,361.088761 C333.056398,358.486822 331.236111,356.297308 328.696856,355.411841 C326.157601,354.526373 323.323006,355.092675 321.347385,356.880136 Z" id="Path" fill="#F4E6D8"></path>
            <path d="M556.42865,360.117293 C556.42865,360.117293 564.816346,355.246523 572.016403,357.681908 C583.150513,361.447968 581.51751,371.967828 581.51751,371.967828 C581.51751,371.967828 597.130006,366.255971 600.160958,383.002384 C600.160958,383.002384 614.239421,386.203535 611.072386,400.489455 C611.072386,400.489455 622.466291,401.104578 620.202356,416.256692 C617.93842,431.408807 607.979577,444 601.991901,444 C595.806284,444 591.439239,440.146065 592.280483,428.935761 C592.280483,428.935761 584.783516,438.476446 576.804071,434.233351 C568.824625,429.990257 572.016403,420.851285 572.016403,420.851285 C572.016403,420.851285 564.816346,425.722056 558.828669,419.595932 C553.397698,414.084931 557.591546,404.996173 557.591546,404.996173 C557.591546,404.996173 549.624472,408.297752 546.803831,402.560788 C540.803783,390.396415 557.307008,377.315633 559.991565,373.373824 L556.42865,360.117293 Z" id="Path" fill="#FFE0D6"></path>
            <path d="M553.5,409 C561.760907,401.398453 575.826775,387.0538 582.5,372" id="Path" stroke="#30242A" stroke-width="4" stroke-linecap="round" stroke-linejoin="round"></path>
            <path d="M568.5,426 C582.256472,414.650057 593.484883,400.699606 601.5,385" id="Path" stroke="#30242A" stroke-width="4" stroke-linecap="round" stroke-linejoin="round"></path>
            <path d="M590.5,436 C594.191814,431.428361 607.100856,415.002939 613.5,402" id="Path" stroke="#30242A" stroke-width="4" stroke-linecap="round" stroke-linejoin="round"></path>
            <path d="M586.892406,713 L378.5,713 L425.867554,563.188707 C428.741277,554.137688 437.140252,547.992656 446.627332,548.000007 L622.725371,548.000007 C629.664993,547.997143 636.190018,551.307174 640.291519,556.911006 C644.39302,562.514839 645.579308,569.740684 643.485148,576.363847 L604.312243,700.247458 C601.896641,707.840317 594.852547,712.997087 586.892406,713 Z" id="Path" fill="#30242A"></path>
            <path d="M258.10618,696 C256.857699,699.967095 257.561173,704.296344 260.000034,707.654972 C262.438895,711.0136 266.320802,712.999015 270.450696,713 L587.852695,713 C595.816951,712.981229 602.8546,707.773637 605.256846,700.121592 L606.5,696 L258.10618,696 Z" id="Path" fill="#30242A"></path>
            <path d="M555.097392,619.453252 C550.297634,613.002078 528.477195,630.036076 526.877276,631.449535 C526.040395,630.036076 514.693275,613.002078 506.361387,619.453252 C499.137136,625.046685 514.976337,650.017802 519.246891,656.38441 C519.604094,656.776128 520.114326,657 520.649898,657 C521.185469,657 521.695701,656.776128 522.052904,656.38441 C529.818666,649.957397 559.26949,624.986281 555.097392,619.453252 Z" id="Path" fill="#FFBE21"></path>
            <ellipse id="Oval" fill="#FFBE21" transform="translate(531.858404, 612.174971) rotate(-72.700000) translate(-531.858404, -612.174971) " cx="531.858404" cy="612.174971" rx="10.6878199" ry="3.49677579"></ellipse>
            <path d="M136.752532,577.396758 C142.257566,579.527116 148.488271,578.362518 152.861078,574.385868 C153.379741,580.312414 157.202488,585.430195 162.723648,587.589584 C168.244807,589.748973 174.508032,588.575932 178.882575,584.563174 C179.414517,590.482356 183.23942,595.588346 188.755758,597.743211 C194.272095,599.898077 200.528005,598.729989 204.904072,594.728039 C205.306103,599.366238 207.746923,603.582896 211.561705,606.229481 C215.376487,608.876066 220.167893,609.676919 224.630845,608.413903 L243.366322,557.888181 C250.58229,538.492963 254.002839,517.881795 253.440359,497.185152 L251.544507,430 C251.544507,430 208.311649,433.608091 183.095579,464.961162 C170.159178,481.048274 144.769631,523.549103 128.5,569.757557 C130.209695,573.245273 133.151737,575.968662 136.752532,577.396758 Z" id="Path" fill="#FFBE21"></path>
            <path d="M215.365461,608.989486 C209.804092,606.856625 205.942935,601.764032 205.40738,595.855483 C201.011392,599.840988 194.727001,601.004276 189.185551,598.858265 C183.6441,596.712254 179.801783,591.627246 179.26742,585.732387 C174.872962,589.728655 168.581223,590.896876 163.034928,588.746361 C157.488634,586.595845 153.648483,581.499094 153.127459,575.596901 C149.494841,578.890107 144.520028,580.295175 139.691204,579.391788 C134.86238,578.488401 130.739499,575.381317 128.555895,571 C114.390526,610.885243 107.096232,653.558365 120.813488,684.274587 C150.339196,750.427838 238.953664,727.145957 259.865632,721.025016 C280.777601,714.904075 321.406569,694.075527 348.4801,697.755526 C375.553631,701.435526 406.311652,714.904075 411.240901,697.755526 C411.240901,697.755526 427.808658,697.334247 422.593113,681.647786 C422.593113,681.647786 430.920558,680.619369 432.15287,674.498427 C434.64239,662.244154 405.079339,651.228938 405.079339,651.228938 C405.079339,651.228938 428.46838,654.946109 433.385183,649.989881 C439.608983,643.794596 433.559449,633.795406 395.357763,624.576823 C353.396902,614.466118 298.017528,620.587059 215.564622,635.282275 L225.211513,609.472718 C221.963936,610.380898 218.507538,610.211263 215.365461,608.989486 Z" id="Path" fill="#FFE0D6"></path>
            <path d="M245.5,551 L217.5,632" id="Path" stroke="#30242A" stroke-width="4" stroke-linecap="round" stroke-linejoin="round"></path>
            <path d="M412.5,651 C399.359294,645.819048 377.482588,637.869841 360.5,635" id="Path" stroke="#30242A" stroke-width="4" stroke-linecap="round" stroke-linejoin="round"></path>
            <path d="M423.5,681 C406.48491,673.395918 373.983622,659.595918 356.5,657" id="Path" stroke="#30242A" stroke-width="4" stroke-linecap="round" stroke-linejoin="round"></path>
            <path d="M215.5,631 C206.317798,632.521739 191.902728,635.04529 177.5,638" id="Path" stroke="#30242A" stroke-width="4" stroke-linecap="round" stroke-linejoin="round"></path>
            <path d="M411.5,699 C398.423563,692.507766 370.868288,679.597215 351.5,676" id="Path" stroke="#30242A" stroke-width="4" stroke-linecap="round" stroke-linejoin="round"></path>
            <path d="M988.071872,540 C988.071872,540 978.27279,562.019176 952.565782,562.019176 C926.858775,562.019176 917.009825,540 917.009825,540 C917.009825,540 844.701075,705.143817 915.763122,792 L989.231306,792 C1060.25595,705.143817 988.071872,540 988.071872,540 Z" id="Path" fill="#3EC1F3"></path>
            <path d="M952.024912,562 C977.709474,562 987.5,540 987.5,540 L916.5,540 C916.5,540 926.327895,562 952.024912,562 Z" id="Path" fill="#30242A"></path>
            <path d="M1018.5,688 C978.748185,688.709811 931.705645,703.130189 895.5,754" id="Path" stroke="#F5EBDD" stroke-width="4" stroke-linecap="round" stroke-linejoin="round"></path>
            <path d="M888.5,646 C915.355065,639.143291 966.207478,632.613092 1015.5,644.889866" id="Path" stroke="#F5EBDD" stroke-width="4" stroke-linecap="round" stroke-linejoin="round"></path>
            <path d="M1015.5,729 C997.458792,729.214358 964.10646,749.704495 967.780123,791" id="Path" stroke="#F5EBDD" stroke-width="4" stroke-linecap="round" stroke-linejoin="round"></path>
            <path d="M947.5,554 C946.763667,536.204611 942.112495,465.48511 914.5,424" id="Path" stroke="#30242A" stroke-width="4" stroke-linecap="round"></path>
            <ellipse id="Oval" fill="#30242A" transform="translate(893.004990, 471.522020) rotate(-59.460000) translate(-893.004990, -471.522020) " cx="893.00499" cy="471.52202" rx="12.7654502" ry="56.744232"></ellipse>
            <ellipse id="Oval" fill="#30242A" transform="translate(915.840819, 297.026893) rotate(-29.690000) translate(-915.840819, -297.026893) " cx="915.840819" cy="297.026893" rx="10.9528823" ry="31.4096412"></ellipse>
            <path d="M840.031563,387.981439 C842.822228,381.659856 855.951875,381.196691 871.909067,386.041151 C862.074126,368.127914 859.062175,351.466475 865.56553,347.172806 C872.068885,342.879137 885.813215,352.380288 897.873312,368.866475 C900.000118,352.05482 905.753559,340.075108 912.625724,340 C921.30506,340 928.410805,359.490504 928.496861,383.600144 C928.549149,390.494487 927.948072,397.377886 926.701984,404.154676 C919.012963,400.568898 910.064306,401.187863 902.922149,405.79949 C895.779991,410.411117 891.414248,418.38914 891.320783,427 C884.955867,425.410805 878.749608,423.223287 872.781918,420.465612 C851.108166,410.588921 836.478691,396.05554 840.031563,387.981439 Z" id="Path" fill="#4756DF"></path>
            <path d="M902.761293,406.240527 C909.853089,401.337381 918.812062,400.639349 926.5,404.390943 C924.40827,415.967008 920.626129,424.555283 916.077832,427.34906 C911.748436,430.699004 902.578874,430.828346 891.5,427.995767 C891.592514,419.196193 895.819727,411.029808 902.761293,406.240527 Z" id="Path" fill="#30242A"></path>
            <path d="M957.5,553 C960.938824,533.522369 978.843135,438.027532 1007.5,384" id="Path" stroke="#30242A" stroke-width="4" stroke-linecap="round"></path>
            <ellipse id="Oval" fill="#30242A" transform="translate(1038.428097, 495.531159) rotate(-72.050000) translate(-1038.428097, -495.531159) " cx="1038.4281" cy="495.531159" rx="12.1078081" ry="68.4676317"></ellipse>
            <path d="M1001.717,299.024551 C1008.52857,298.397241 1015.3895,309.851926 1019.0791,326.425464 C1029.59261,308.860776 1042.45069,297.995762 1049.34864,301.671801 C1056.24659,305.347839 1054.83985,322.235031 1046.6092,341.066885 C1062.10799,334.705959 1075.27456,333.903002 1078.69269,339.950273 C1082.98694,347.653643 1069.72165,363.574778 1049.07716,375.493673 C1043.18935,378.925093 1036.99099,381.773614 1030.56746,384 C1029.85272,375.409508 1024.91825,367.767456 1017.44995,363.684839 C1009.98166,359.602222 1000.99036,359.631613 993.548045,363.762971 C991.785526,357.316082 990.608314,350.718416 990.031201,344.052882 C987.748337,319.98926 993.042113,299.827508 1001.717,299.024551 Z" id="Path" fill="#4756DF"></path>
            <path d="M1017.15634,362.957297 C1024.75074,367.059761 1029.78504,374.888614 1030.5,383.708016 C1019.84232,387.384876 1010.78638,388.084624 1006.25225,385.285631 C1001.32384,382.957377 996.654179,374.649456 993.5,363.186305 C1000.84986,359.020574 1009.73214,358.934588 1017.15634,362.957297 Z" id="Path" fill="#30242A"></path>
            <path d="M1075.5124,414 L1075.5124,414.098374 C1063.45633,419.041611 1057.19904,432.327692 1061.0992,444.701853 C1064.99937,457.076014 1077.76332,464.433812 1090.5,461.649982 L1090.5,461.748356 C1057.91557,471.893191 1028.13823,469.433838 1023.98325,456.239404 C1019.82827,443.04497 1042.92797,424.144835 1075.5124,414 Z" id="Path" fill="#4756DF"></path>
            <path d="M1068.80896,453.991448 C1074.71732,451.587815 1077.80234,444.965675 1075.88491,438.802597 C1073.96747,432.639518 1067.69584,429.019157 1061.5,430.498766 C1063.16323,422.165216 1068.81387,415.225074 1076.56163,412 L1091.5,460.39968 C1083.35756,462.226712 1074.85336,459.82502 1068.80896,453.991448 Z" id="Path" fill="#FFB7D5"></path>
            <path d="M1075.9168,440.732398 C1077.88886,446.917852 1074.71218,453.558618 1068.61338,456 C1062.11185,449.918385 1059.24183,440.972386 1061.01526,432.31629 C1067.45105,430.865838 1073.93815,434.529629 1075.9168,440.732398 Z" id="Path" fill="#30242A"></path>
        </g>
    </g>
</svg>