<?xml version="1.0" encoding="UTF-8"?>
<svg width="591px" height="792px" viewBox="0 0 591 792" version="1.1" xmlns="http://www.w3.org/2000/svg" xmlns:xlink="http://www.w3.org/1999/xlink">
    <g id="pantone" stroke="none" stroke-width="1" fill="none" fill-rule="evenodd">
        <rect id="Rectangle" fill="#FFBE21" x="32" y="122" width="529" height="571"></rect>
        <rect id="Rectangle" fill="#FFBE21" x="1" y="662" width="592" height="31"></rect>
        <rect id="Rectangle" fill="#F5EBDD" x="63" y="153" width="467" height="508"></rect>
        <rect id="Rectangle" fill="#FFBE21" x="41" y="340" width="512" height="31"></rect>
        <path d="M151.00531,386.493266 C151.00531,386.493266 174.531893,387.792318 192.075557,377.919521 C208.694777,368.566345 211.374626,353.913036 205.578673,324.918191 C205.578673,324.918191 215.965686,318.68274 214.926985,312.44729 C214.251829,308.342285 202.46257,304.133356 202.46257,304.133356 C200.987614,296.214333 199.117952,284.242268 196.084944,272 C188.497473,273.492456 180.789194,274.285601 173.056937,274.369471 C149.873125,300.464832 124.559976,302.054872 124.559976,302.054872 C120.89412,296.575469 115.921246,292.096482 110.090868,289.02278 L75.5125031,302.813518 C75.1829301,303.931257 74.9124923,305.065605 74.7023161,306.211839 C69.8931293,333.491935 103.785951,343.624543 103.785951,343.624543 C96.9512968,369.751081 74.7023161,379.998005 58,384.01987 L59.4126337,397 L152.750328,397 L151.00531,386.493266 Z" id="Path" fill="#EAA58B"></path>
        <path d="M376.559585,592.931011 C457.792746,569.002085 463,377.570675 463,377.570675 L420.623368,323.095954 C420.623368,323.095954 428.632124,283.935747 420.300518,276.65303 C410.240104,267.861751 397.565648,295.380016 383.849741,329.712823 C369.436062,365.783078 342.51456,471.871452 340.431658,479.154169 C340.431658,479.154169 320.227513,469.665829 296.28456,458.637715 L292.88943,469.790676 L262,573.819081 C295.867979,587.666647 343.868446,602.565004 376.559585,592.931011 Z" id="Path" fill="#EAA58B"></path>
        <path d="M105,342.70732 C105,342.70732 70.7660773,332.600461 75.6236643,305.389685 C75.8359558,304.246364 76.1091152,303.114899 76.4420051,302 L51,311.982467 C51,312.697722 51.115407,313.371513 51.1678648,314.055669 L58.7532543,383 C75.6551389,378.988354 98.0965611,368.767469 105,342.70732 Z" id="Path" fill="#A15842"></path>
        <path d="M125.470105,303 C125.470105,303 150.784998,301.393151 173.970407,275.021918 C181.703197,274.937161 189.412006,274.135631 197,272.627397 C195.711922,267.376256 194.205701,262.072603 192.419012,257 L111,289.830137 C116.83078,292.936333 121.803997,297.46267 125.470105,303 Z" id="Path" fill="#A15842"></path>
        <path d="M76,303 L111,289.20037 C96.5437068,281.941785 80.6785822,287.234936 76,303 Z" id="Path" fill="#30242A"></path>
        <path d="M110.506295,289.165737 L192,256.672975 C189.161549,248.679714 185.626481,241.289325 181.134866,235.676372 C163.729857,213.920981 120.997128,198.131951 83.2758773,225.687394 C46.9582565,252.22419 49.1728724,294.394099 50.6804747,313 L75.8938244,302.948656 C80.520604,287.201204 96.2100657,281.910476 110.506295,289.165737 Z" id="Path" fill="#30242A"></path>
        <path d="M207,443 L204.526165,421.484545 C175.900358,413.089545 155.215771,412.681818 155.215771,412.681818 L152.617204,397 L59.1623656,397 L60.627957,410.590909 C51.3671829,410.563552 42.1220513,411.357688 33,412.964091 L46.0759857,443 L207,443 Z" id="Path" fill="#4756DF"></path>
        <polygon id="Path" fill="#4756DF" points="74.6550101 505 216 505 212.382986 474 61 474"></polygon>
        <polygon id="Path" fill="#4756DF" points="88 537 101.685962 568 223 568 221.756771 556.261333 221.861244 556.313 219.59418 537"></polygon>
        <path d="M124.395536,615.469579 C124.395536,615.469579 192.566265,620.039782 229,626 L226.1966,599 L117,599 L124.395536,615.469579 Z" id="Path" fill="#4756DF"></path>
        <polygon id="Path" fill="#FFB7D5" points="212 474 208.373397 443 47 443 60.6518664 474"></polygon>
        <polygon id="Path" fill="#FFB7D5" points="74 505 87.6690156 536 219 536 215.382038 505"></polygon>
        <polygon id="Path" fill="#FFB7D5" points="103.771734 571.761333 116.205135 599 225 599 221.737926 568 102 568"></polygon>
        <path d="M294.927151,458.894029 C283.104764,453.447932 270.376966,447.586101 258.731499,442.389444 C248.522202,437.795598 239.13506,433.638272 231.922988,430.582637 C223.147341,426.856875 214.157059,423.656985 205,421 L207.476873,442.389444 L211.09852,473.569391 L214.709759,504.749338 L218.320999,535.929285 L220.579325,555.354392 C221.620028,555.894844 230.788622,560.831669 244.682007,567.109232 C249.302729,569.187895 254.443802,571.432851 259.969935,573.698594 L260.719241,574 L291.607308,470.066843 L295,458.925209 L294.927151,458.894029 Z" id="Path" fill="#4756DF"></path>
        <path d="M116.242856,599.23539 L103.817683,571.789894 L102.047122,568 L100.766069,568 L103.494816,574.247078 L2,611.146485 C19.101538,645.19306 38.4527302,674.408562 52.7838607,688.402017 C102.776176,737.337461 233.693553,706.85172 233.693553,706.85172 C233.693553,706.85172 248.587097,718.596227 268.375722,722.760946 C303.786945,792.519983 323.263118,768.281321 323.263118,768.281321 C323.263118,768.281321 335.761197,781.816656 345.134757,767.240141 C363.881875,768.281321 362.840368,756.828344 346.176263,717.263517 C364.923382,740.16947 383.587179,740.533883 383.982952,734.213922 C385.024458,717.555047 338.156662,662.372525 295.142441,644.38094 C269.271418,633.563084 227.756965,625.931237 227.756965,625.931237 C191.481291,620.090219 123.606308,615.51944 123.606308,615.51944 L116.242856,599.23539 Z" id="Path" fill="#EAA58B"></path>
        <path d="M33.8417904,413 C14.584099,416.310932 -10.113501,424.171794 -24.3776886,442.91292 C-30.720788,451.24231 -35.0083495,461.654046 -35.7973439,474.814482 C-38.1539455,512.723616 -19.6333409,566.062944 2.86338006,611 L104,574.100805 L33.8417904,413 Z" id="Path" fill="#4756DF"></path>
        <path d="M134,398 L136,416" id="Path" stroke="#30242A" stroke-width="4" stroke-linecap="round" stroke-linejoin="round"></path>
        <path d="M117,398 L119,416" id="Path" stroke="#30242A" stroke-width="4" stroke-linecap="round" stroke-linejoin="round"></path>
        <path d="M152,389 C145.062162,388.512802 138.280639,386.817421 132,384" id="Path" stroke="#A15842" stroke-width="4" stroke-linecap="round"></path>
        <path d="M350,717 C345.907604,708.053989 341.219951,698.353747 337,691" id="Path" stroke="#A15842" stroke-width="4" stroke-linecap="round"></path>
        <path d="M317,701 C329.936071,723.872216 339.930714,749.621703 346,767" id="Path" stroke="#A15842" stroke-width="4" stroke-linecap="round"></path>
        <path d="M294,715 C303.470124,732.067096 314.234498,752.659255 322,768" id="Path" stroke="#A15842" stroke-width="4" stroke-linecap="round"></path>
        <path d="M223,556 L219,517" id="Path" stroke="#30242A" stroke-width="4" stroke-linecap="round" stroke-linejoin="round"></path>
        <path d="M337,479 L330,506" id="Path" stroke="#A15842" stroke-width="4" stroke-linecap="round"></path>
        <path d="M61,408.5 L74,408.5" id="Path" stroke="#30242A" stroke-width="4" stroke-linecap="round" stroke-linejoin="round"></path>
        <path d="M158,413 L160,425" id="Path" stroke="#30242A" stroke-width="4" stroke-linecap="round" stroke-linejoin="round"></path>
        <path d="M180,232 L49,282" id="Path" stroke="#4756DF" stroke-width="4" stroke-linecap="round"></path>
        <path d="M122,614 L94,612" id="Path" stroke="#A15842" stroke-width="4" stroke-linecap="round"></path>
        <path d="M123,614 L84,527" id="Path" stroke="#30242A" stroke-width="4" stroke-linecap="round" stroke-linejoin="round"></path>
        <path d="M424,315 C421.638604,324.441956 418.332649,336.861199 415.026694,346.334385 C415.026694,346.334385 432.480493,377.564669 414,414" id="Path" stroke="#A15842" stroke-width="4" stroke-linecap="round"></path>
        <path d="M465.311784,623 L420.165338,623 C419.52174,623 419,622.484417 419,621.848414 L419,589.151586 C419,588.515583 419.52174,588 420.165338,588 L465.311784,588 C475.080689,588 482.999951,595.82581 482.999951,605.479436 C483.011006,610.122392 481.152318,614.578929 477.833944,617.865859 C474.515571,621.15279 470.010197,623.000013 465.311784,623 Z" id="Path" stroke="#A15842" stroke-width="8"></path>
        <path d="M406.505204,581.703619 C369.235176,581.703619 352,552 352,552 L377.061778,661 L435.94863,661 L461,552 C449.175674,570.639257 428.578039,581.866462 406.505204,581.703619 Z" id="Path" fill="#FF7235"></path>
        <path d="M406.505204,581.998235 C428.578039,582.162694 449.175674,570.824131 461,552 L352,552 C352,552 369.235176,581.998235 406.505204,581.998235 Z" id="Path" fill="#A15842"></path>
        <path d="M112,321 L96,310" id="Path" stroke="#A15842" stroke-width="4" stroke-linecap="round"></path>
        <circle id="Oval" fill="#30242A" cx="184.5" cy="303.5" r="4.5"></circle>
        <path d="M22,322 L220,247" id="Path" stroke="#30242A" stroke-width="4" stroke-linecap="round" stroke-linejoin="round"></path>
        <path d="M181,334 C182.004184,336.20717 187.59749,341.283661 193,337.82944" id="Path" stroke="#A15842" stroke-width="4" stroke-linecap="round"></path>
        <path d="M459,415 C456.493117,412.462473 454.56634,408.177797 455.084291,401.417993 C455.084291,401.417993 445.761174,406.617842 439.545763,401.417993 C431.382856,394.58539 434.366254,384.778474 434.366254,384.778474 C434.366254,384.778474 425.043137,387.898384 420.899529,380.618594 C416.403715,372.725222 421.935431,361.899135 421.935431,361.899135 C421.935431,361.899135 414.487297,362.939105 412.612315,355.659316 C410.22974,346.445182 415.212428,338.063025 420.454092,332" id="Path" stroke="#A15842" stroke-width="8" stroke-linecap="round"></path>
        <path d="M443.41862,162.624638 L295.954931,218.721912 C285.886721,222.552001 274.62441,217.483193 270.799856,207.40041 L230.276241,100.566845 C226.451687,90.4840624 231.51317,79.2054514 241.58138,75.3753617 L389.045069,19.2780884 C399.113279,15.4479987 410.37559,20.5168075 414.200144,30.5995896 L454.723759,137.433155 C458.548313,147.515938 453.48683,158.794549 443.41862,162.624638 Z" id="Rectangle" fill="#30242A"></path>
        <path d="M480.641957,482.455231 C476.3542,484.087758 471.55791,481.927243 469.929144,477.629588 L362.543514,194.282312 C360.914748,189.984657 363.070286,185.177295 367.358043,183.544769 C371.6458,181.912242 376.44209,184.072757 378.070856,188.370412 L485.456486,471.717688 C487.085252,476.015343 484.929714,480.822705 480.641957,482.455231 Z" id="Rectangle" fill="#30242A"></path>
        <path d="M359.1847,86.6015273 C349.275048,82.3137323 337.795626,86.9315886 333.528506,96.9223102 L331.271423,102.228948 L326.0118,99.9412436 C316.145593,95.8130715 304.822709,100.448837 300.597502,110.346254 C296.372294,120.243672 300.812797,131.729668 310.564244,136.12666 L315.823868,138.414364 L351.678348,154 L367.136257,117.814583 L369.39334,112.518392 C371.453937,107.716645 371.535565,102.284871 369.620201,97.422301 C367.704837,92.5597305 363.950006,88.6662731 359.1847,86.6015273 Z" id="Path" fill="#FFB7D5"></path>
        <path d="M449.285288,313.152135 C458.959232,318.959559 456.881049,330.210793 456.881049,330.210793 C456.881049,330.210793 476.343237,327.540833 475.771736,347.435675 C475.771736,347.435675 491.285375,354.562495 484.167597,370.0732 C484.167597,370.0732 494.839069,372.857439 489.508529,389.905708 C484.31307,406.52803 473.683162,417.010482 466.648511,417.955877 C462.928562,418.454546 454.17941,414.839191 455.218502,401.333554 C455.218502,401.333554 445.866677,406.52803 439.632126,401.333554 C431.444084,394.508013 434.436668,384.711232 434.436668,384.711232 C434.436668,384.711232 425.084842,387.827918 420.928475,380.555652 C416.418817,372.670438 421.967567,361.855539 421.967567,361.855539 C421.967567,361.855539 414.496498,362.894434 412.615742,355.622168 C408.62563,340.277687 425.178361,327.249942 429.241209,323.416419 L426.123934,315.105258 C426.123934,315.105258 439.632126,307.3551 449.285288,313.152135 Z" id="Path" fill="#EAA58B"></path>
        <path d="M418,365 C429.881706,358.070539 447.887464,345.290456 458,330" id="Path" stroke="#A15842" stroke-width="4" stroke-linecap="round"></path>
        <path d="M432,387 C449.340815,376.966806 464.612203,363.731603 477,348" id="Path" stroke="#A15842" stroke-width="4" stroke-linecap="round"></path>
        <path d="M455,403 C463.203678,396.726813 474.483734,385.22597 484,372" id="Path" stroke="#A15842" stroke-width="4" stroke-linecap="round"></path>
    </g>
</svg>